<?xml version="1.0" encoding="UTF-8" standalone="no"?>
<svg
   width="32"
   height="32"
   viewBox="0 0 8.4666667 8.466963"
   version="1.1"
   id="svg60"
   sodipodi:docname="favicon.svg"
   inkscape:version="1.2.1 (9c6d41e410, 2022-07-14)"
   inkscape:export-filename="favicon.png"
   inkscape:export-xdpi="96"
   inkscape:export-ydpi="96"
   xml:space="preserve"
   xmlns:inkscape="http://www.inkscape.org/namespaces/inkscape"
   xmlns:sodipodi="http://sodipodi.sourceforge.net/DTD/sodipodi-0.dtd"
   xmlns:xlink="http://www.w3.org/1999/xlink"
   xmlns="http://www.w3.org/2000/svg"
   xmlns:svg="http://www.w3.org/2000/svg"><sodipodi:namedview
     id="namedview62"
     pagecolor="#ffffff"
     bordercolor="#000000"
     borderopacity="0.25"
     inkscape:showpageshadow="2"
     inkscape:pageopacity="0.0"
     inkscape:pagecheckerboard="0"
     inkscape:deskcolor="#d1d1d1"
     showgrid="false"
     inkscape:zoom="3.5649966"
     inkscape:cx="-44.880829"
     inkscape:cy="81.907513"
     inkscape:window-width="1366"
     inkscape:window-height="715"
     inkscape:window-x="-8"
     inkscape:window-y="-8"
     inkscape:window-maximized="1"
     inkscape:current-layer="svg60" /><defs
     id="defs34"><linearGradient
       x1="413.98999"
       y1="101.7"
       x2="326.98999"
       y2="195.47"
       gradientUnits="userSpaceOnUse"
       id="linearGradient6"><stop
         offset="0"
         stop-color="#c33764"
         id="stop2" /><stop
         offset="1"
         stop-color="#1d2671"
         id="stop4" /></linearGradient><linearGradient
       x1="321.32999"
       y1="107.33"
       x2="430.81"
       y2="107.33"
       gradientUnits="userSpaceOnUse"
       id="linearGradient14"><stop
         offset="0"
         stop-color="#fc1b7c"
         id="stop8" /><stop
         offset=".49"
         stop-color="#714cf4"
         id="stop10" /><stop
         offset="1"
         stop-color="#0084f3"
         id="stop12" /></linearGradient><linearGradient
       x1="317.16"
       y1="350.89001"
       x2="388.10999"
       y2="350.89001"
       gradientUnits="userSpaceOnUse"
       id="linearGradient22"><stop
         offset="0"
         stop-color="#18eff2"
         id="stop16" /><stop
         offset=".5"
         stop-color="#109ef5"
         id="stop18" /><stop
         offset="1"
         stop-color="#144ccb"
         id="stop20" /></linearGradient><linearGradient
       x1="52.279999"
       y1="108.99"
       x2="197.25"
       y2="108.99"
       gradientUnits="userSpaceOnUse"
       id="linearGradient30"><stop
         offset="0"
         stop-color="#f23514"
         id="stop24" /><stop
         offset=".49"
         stop-color="#f87458"
         id="stop26" /><stop
         offset="1"
         stop-color="#f6e813"
         id="stop28" /></linearGradient><path
       id="E"
       d="m 35.842,26.49 q 0,-0.421 0.172,-0.745 0.177,-0.325 0.477,-0.502 0.304,-0.183 0.669,-0.183 0.33,0 0.573,0.132 0.248,0.127 0.396,0.319 v -0.406 h 0.583 v 2.794 h -0.583 v -0.416 q -0.147,0.198 -0.401,0.33 -0.254,0.132 -0.578,0.132 -0.36,0 -0.659,-0.183 -0.299,-0.188 -0.477,-0.517 -0.172,-0.335 -0.172,-0.756 z m 2.287,0.01 q 0,-0.289 -0.122,-0.502 -0.117,-0.213 -0.309,-0.325 -0.193,-0.112 -0.416,-0.112 -0.223,0 -0.416,0.112 -0.193,0.106 -0.314,0.319 -0.117,0.208 -0.117,0.497 0,0.289 0.117,0.507 0.122,0.218 0.314,0.335 0.198,0.112 0.416,0.112 0.223,0 0.416,-0.112 0.193,-0.112 0.309,-0.325 0.122,-0.218 0.122,-0.507 z" /><path
       id="F"
       d="m 42.339,12.935 q 0,-0.399 0.161,-0.697 0.161,-0.304 0.441,-0.47 0.285,-0.166 0.631,-0.166 0.342,0 0.593,0.147 0.251,0.147 0.375,0.37 v -0.474 h 0.437 v 2.6 H 44.54 v -0.484 q -0.128,0.228 -0.384,0.38 -0.251,0.147 -0.588,0.147 -0.346,0 -0.626,-0.171 -0.28,-0.171 -0.441,-0.479 Q 42.34,13.33 42.34,12.936 Z m 2.202,0.005 q 0,-0.294 -0.119,-0.512 -0.119,-0.218 -0.323,-0.332 -0.199,-0.119 -0.441,-0.119 -0.242,0 -0.441,0.114 -0.199,0.114 -0.318,0.332 -0.119,0.218 -0.119,0.512 0,0.299 0.119,0.522 0.119,0.218 0.318,0.337 0.199,0.114 0.441,0.114 0.242,0 0.441,-0.114 0.204,-0.119 0.323,-0.337 0.119,-0.223 0.119,-0.517 z" /><clipPath
       clipPathUnits="userSpaceOnUse"
       id="clipPath527"><path
         id="path529"
         d="m 3382.39,3505.38 c -105.85,-52.93 -141.72,0 -239.8,39.99 -49.59,20.19 -58.35,-4.14 -67.07,-28.47 -8.53,-23.82 -17.02,-47.65 -63.76,-29.67 -94.48,36.32 -109.05,61.78 -192.62,76.32 -83.56,14.53 25.43,94.49 -32.71,127.16 -58.15,32.72 -261.64,-54.49 -327.05,-69.02 -29.2,-6.49 -48.99,5.13 -65.19,16.75 -20.07,14.4 -34.62,28.81 -54.74,8.7 -36.33,-36.38 -138.1,-94.52 -138.1,-159.91 0,-65.41 -43.57,-47.25 -156.24,-116.3 -112.65,-69.04 -119.92,-207.13 -119.92,-254.38 0,-47.24 -61.8,-138.09 -76.31,-159.9 -14.53,-21.8 7.28,-69.04 61.78,-112.65 54.5,-43.59 36.32,-116.27 105.38,-163.51 69.04,-47.24 83.57,-90.88 116.29,-76.32 32.7,14.51 112.66,43.58 159.9,14.51 23.9,-14.71 67.36,8.75 111.52,32.2 43.1,22.89 86.87,45.79 113.79,33.21 54.48,-25.42 72.69,-83.55 141.72,-83.55 69.02,0 72.66,-65.43 47.25,-116.32 -25.46,-50.85 -21.8,-87.2 25.41,-127.17 47.25,-40 50.89,-58.12 79.97,-123.56 29.1,-65.41 14.5301,-119.93 32.68,-152.63 18.19,-32.7 7.28,-65.4099 -29.07,-105.4 -36.33,-39.9601 -32.69,-94.48 3.6401,-163.51 36.3501,-69.05 69.0601,-105.39 69.0601,-167.1699 0,-61.8002 21.7899,-101.7601 50.8699,-138.1201 29.07,-36.3001 87.24,-101.72 76.3101,-141.68 -10.9001,-40 14.55,-76.34 72.69,-58.1601 58.15,18.1601 119.9299,-14.5293 210.77,50.86 90.8599,65.4201 156.2699,119.9201 159.92,167.1801 3.6002,47.2501 39.9399,79.93 83.5499,94.46 43.61,14.5496 32.72,79.98 3.6406,130.85 -29.0501,50.8701 21.8,65.41 112.7,94.5 90.8298,29.05 116.25,72.64 101.7199,207.11 -14.5395,134.46 -50.9001,272.58 14.5293,312.53 65.4,39.98 225.31,203.49 276.1901,337.97 50.8799,134.45 29.0799,181.69 -3.6508,167.16 -32.7001,-14.5301 -119.9201,-65.42 -156.2501,-47.25 -36.3291,18.18 -58.1492,123.56 -138.0891,178.08 -79.94,54.52 -98.1,98.1 -127.18,181.68 -29.1001,83.59 -69.05,94.51 -109.02,163.57 -40,69.03 -69.06,192.58 -134.51,159.86"
         style="stroke-width:0.999999" /></clipPath><clipPath
       clipPathUnits="userSpaceOnUse"
       id="clipPath523"><path
         id="path525"
         d="m 3382.39,3505.38 c -105.85,-52.93 -141.72,0 -239.8,39.99 -49.59,20.19 -58.35,-4.14 -67.07,-28.47 -8.53,-23.82 -17.02,-47.65 -63.76,-29.67 -94.48,36.32 -109.05,61.78 -192.62,76.32 -83.56,14.53 25.43,94.49 -32.71,127.16 -58.15,32.72 -261.64,-54.49 -327.05,-69.02 -29.2,-6.49 -48.99,5.13 -65.19,16.75 -20.07,14.4 -34.62,28.81 -54.74,8.7 -36.33,-36.38 -138.1,-94.52 -138.1,-159.91 0,-65.41 -43.57,-47.25 -156.24,-116.3 -112.65,-69.04 -119.92,-207.13 -119.92,-254.38 0,-47.24 -61.8,-138.09 -76.31,-159.9 -14.53,-21.8 7.28,-69.04 61.78,-112.65 54.5,-43.59 36.32,-116.27 105.38,-163.51 69.04,-47.24 83.57,-90.88 116.29,-76.32 32.7,14.51 112.66,43.58 159.9,14.51 23.9,-14.71 67.36,8.75 111.52,32.2 43.1,22.89 86.87,45.79 113.79,33.21 54.48,-25.42 72.69,-83.55 141.72,-83.55 69.02,0 72.66,-65.43 47.25,-116.32 -25.46,-50.85 -21.8,-87.2 25.41,-127.17 47.25,-40 50.89,-58.12 79.97,-123.56 29.1,-65.41 14.5301,-119.93 32.68,-152.63 18.19,-32.7 7.28,-65.4099 -29.07,-105.4 -36.33,-39.9601 -32.69,-94.48 3.6401,-163.51 36.3501,-69.05 69.0601,-105.39 69.0601,-167.1699 0,-61.8002 21.7899,-101.7601 50.8699,-138.1201 29.07,-36.3001 87.24,-101.72 76.3101,-141.68 -10.9001,-40 14.55,-76.34 72.69,-58.1601 58.15,18.1601 119.9299,-14.5293 210.77,50.86 90.8599,65.4201 156.2699,119.9201 159.92,167.1801 3.6002,47.2501 39.9399,79.93 83.5499,94.46 43.61,14.5496 32.72,79.98 3.6406,130.85 -29.0501,50.8701 21.8,65.41 112.7,94.5 90.8298,29.05 116.25,72.64 101.7199,207.11 -14.5395,134.46 -50.9001,272.58 14.5293,312.53 65.4,39.98 225.31,203.49 276.1901,337.97 50.8799,134.45 29.0799,181.69 -3.6508,167.16 -32.7001,-14.5301 -119.9201,-65.42 -156.2501,-47.25 -36.3291,18.18 -58.1492,123.56 -138.0891,178.08 -79.94,54.52 -98.1,98.1 -127.18,181.68 -29.1001,83.59 -69.05,94.51 -109.02,163.57 -40,69.03 -69.06,192.58 -134.51,159.86"
         style="stroke-width:0.999999" /></clipPath><clipPath
       clipPathUnits="userSpaceOnUse"
       id="clipPath519"><path
         id="path521"
         d="m 3382.39,3505.38 c -105.85,-52.93 -141.72,0 -239.8,39.99 -49.59,20.19 -58.35,-4.14 -67.07,-28.47 -8.53,-23.82 -17.02,-47.65 -63.76,-29.67 -94.48,36.32 -109.05,61.78 -192.62,76.32 -83.56,14.53 25.43,94.49 -32.71,127.16 -58.15,32.72 -261.64,-54.49 -327.05,-69.02 -29.2,-6.49 -48.99,5.13 -65.19,16.75 -20.07,14.4 -34.62,28.81 -54.74,8.7 -36.33,-36.38 -138.1,-94.52 -138.1,-159.91 0,-65.41 -43.57,-47.25 -156.24,-116.3 -112.65,-69.04 -119.92,-207.13 -119.92,-254.38 0,-47.24 -61.8,-138.09 -76.31,-159.9 -14.53,-21.8 7.28,-69.04 61.78,-112.65 54.5,-43.59 36.32,-116.27 105.38,-163.51 69.04,-47.24 83.57,-90.88 116.29,-76.32 32.7,14.51 112.66,43.58 159.9,14.51 23.9,-14.71 67.36,8.75 111.52,32.2 43.1,22.89 86.87,45.79 113.79,33.21 54.48,-25.42 72.69,-83.55 141.72,-83.55 69.02,0 72.66,-65.43 47.25,-116.32 -25.46,-50.85 -21.8,-87.2 25.41,-127.17 47.25,-40 50.89,-58.12 79.97,-123.56 29.1,-65.41 14.5301,-119.93 32.68,-152.63 18.19,-32.7 7.28,-65.4099 -29.07,-105.4 -36.33,-39.9601 -32.69,-94.48 3.6401,-163.51 36.3501,-69.05 69.0601,-105.39 69.0601,-167.1699 0,-61.8002 21.7899,-101.7601 50.8699,-138.1201 29.07,-36.3001 87.24,-101.72 76.3101,-141.68 -10.9001,-40 14.55,-76.34 72.69,-58.1601 58.15,18.1601 119.9299,-14.5293 210.77,50.86 90.8599,65.4201 156.2699,119.9201 159.92,167.1801 3.6002,47.2501 39.9399,79.93 83.5499,94.46 43.61,14.5496 32.72,79.98 3.6406,130.85 -29.0501,50.8701 21.8,65.41 112.7,94.5 90.8298,29.05 116.25,72.64 101.7199,207.11 -14.5395,134.46 -50.9001,272.58 14.5293,312.53 65.4,39.98 225.31,203.49 276.1901,337.97 50.8799,134.45 29.0799,181.69 -3.6508,167.16 -32.7001,-14.5301 -119.9201,-65.42 -156.2501,-47.25 -36.3291,18.18 -58.1492,123.56 -138.0891,178.08 -79.94,54.52 -98.1,98.1 -127.18,181.68 -29.1001,83.59 -69.05,94.51 -109.02,163.57 -40,69.03 -69.06,192.58 -134.51,159.86"
         style="stroke-width:0.999999" /></clipPath><clipPath
       clipPathUnits="userSpaceOnUse"
       id="clipPath515"><path
         id="path517"
         d="m 3382.39,3505.38 c -105.85,-52.93 -141.72,0 -239.8,39.99 -49.59,20.19 -58.35,-4.14 -67.07,-28.47 -8.53,-23.82 -17.02,-47.65 -63.76,-29.67 -94.48,36.32 -109.05,61.78 -192.62,76.32 -83.56,14.53 25.43,94.49 -32.71,127.16 -58.15,32.72 -261.64,-54.49 -327.05,-69.02 -29.2,-6.49 -48.99,5.13 -65.19,16.75 -20.07,14.4 -34.62,28.81 -54.74,8.7 -36.33,-36.38 -138.1,-94.52 -138.1,-159.91 0,-65.41 -43.57,-47.25 -156.24,-116.3 -112.65,-69.04 -119.92,-207.13 -119.92,-254.38 0,-47.24 -61.8,-138.09 -76.31,-159.9 -14.53,-21.8 7.28,-69.04 61.78,-112.65 54.5,-43.59 36.32,-116.27 105.38,-163.51 69.04,-47.24 83.57,-90.88 116.29,-76.32 32.7,14.51 112.66,43.58 159.9,14.51 23.9,-14.71 67.36,8.75 111.52,32.2 43.1,22.89 86.87,45.79 113.79,33.21 54.48,-25.42 72.69,-83.55 141.72,-83.55 69.02,0 72.66,-65.43 47.25,-116.32 -25.46,-50.85 -21.8,-87.2 25.41,-127.17 47.25,-40 50.89,-58.12 79.97,-123.56 29.1,-65.41 14.5301,-119.93 32.68,-152.63 18.19,-32.7 7.28,-65.4099 -29.07,-105.4 -36.33,-39.9601 -32.69,-94.48 3.6401,-163.51 36.3501,-69.05 69.0601,-105.39 69.0601,-167.1699 0,-61.8002 21.7899,-101.7601 50.8699,-138.1201 29.07,-36.3001 87.24,-101.72 76.3101,-141.68 -10.9001,-40 14.55,-76.34 72.69,-58.1601 58.15,18.1601 119.9299,-14.5293 210.77,50.86 90.8599,65.4201 156.2699,119.9201 159.92,167.1801 3.6002,47.2501 39.9399,79.93 83.5499,94.46 43.61,14.5496 32.72,79.98 3.6406,130.85 -29.0501,50.8701 21.8,65.41 112.7,94.5 90.8298,29.05 116.25,72.64 101.7199,207.11 -14.5395,134.46 -50.9001,272.58 14.5293,312.53 65.4,39.98 225.31,203.49 276.1901,337.97 50.8799,134.45 29.0799,181.69 -3.6508,167.16 -32.7001,-14.5301 -119.9201,-65.42 -156.2501,-47.25 -36.3291,18.18 -58.1492,123.56 -138.0891,178.08 -79.94,54.52 -98.1,98.1 -127.18,181.68 -29.1001,83.59 -69.05,94.51 -109.02,163.57 -40,69.03 -69.06,192.58 -134.51,159.86"
         style="stroke-width:0.999999" /></clipPath><clipPath
       clipPathUnits="userSpaceOnUse"
       id="clipPath511"><path
         id="path513"
         d="m 3382.39,3505.38 c -105.85,-52.93 -141.72,0 -239.8,39.99 -49.59,20.19 -58.35,-4.14 -67.07,-28.47 -8.53,-23.82 -17.02,-47.65 -63.76,-29.67 -94.48,36.32 -109.05,61.78 -192.62,76.32 -83.56,14.53 25.43,94.49 -32.71,127.16 -58.15,32.72 -261.64,-54.49 -327.05,-69.02 -29.2,-6.49 -48.99,5.13 -65.19,16.75 -20.07,14.4 -34.62,28.81 -54.74,8.7 -36.33,-36.38 -138.1,-94.52 -138.1,-159.91 0,-65.41 -43.57,-47.25 -156.24,-116.3 -112.65,-69.04 -119.92,-207.13 -119.92,-254.38 0,-47.24 -61.8,-138.09 -76.31,-159.9 -14.53,-21.8 7.28,-69.04 61.78,-112.65 54.5,-43.59 36.32,-116.27 105.38,-163.51 69.04,-47.24 83.57,-90.88 116.29,-76.32 32.7,14.51 112.66,43.58 159.9,14.51 23.9,-14.71 67.36,8.75 111.52,32.2 43.1,22.89 86.87,45.79 113.79,33.21 54.48,-25.42 72.69,-83.55 141.72,-83.55 69.02,0 72.66,-65.43 47.25,-116.32 -25.46,-50.85 -21.8,-87.2 25.41,-127.17 47.25,-40 50.89,-58.12 79.97,-123.56 29.1,-65.41 14.5301,-119.93 32.68,-152.63 18.19,-32.7 7.28,-65.4099 -29.07,-105.4 -36.33,-39.9601 -32.69,-94.48 3.6401,-163.51 36.3501,-69.05 69.0601,-105.39 69.0601,-167.1699 0,-61.8002 21.7899,-101.7601 50.8699,-138.1201 29.07,-36.3001 87.24,-101.72 76.3101,-141.68 -10.9001,-40 14.55,-76.34 72.69,-58.1601 58.15,18.1601 119.9299,-14.5293 210.77,50.86 90.8599,65.4201 156.2699,119.9201 159.92,167.1801 3.6002,47.2501 39.9399,79.93 83.5499,94.46 43.61,14.5496 32.72,79.98 3.6406,130.85 -29.0501,50.8701 21.8,65.41 112.7,94.5 90.8298,29.05 116.25,72.64 101.7199,207.11 -14.5395,134.46 -50.9001,272.58 14.5293,312.53 65.4,39.98 225.31,203.49 276.1901,337.97 50.8799,134.45 29.0799,181.69 -3.6508,167.16 -32.7001,-14.5301 -119.9201,-65.42 -156.2501,-47.25 -36.3291,18.18 -58.1492,123.56 -138.0891,178.08 -79.94,54.52 -98.1,98.1 -127.18,181.68 -29.1001,83.59 -69.05,94.51 -109.02,163.57 -40,69.03 -69.06,192.58 -134.51,159.86"
         style="stroke-width:0.999999" /></clipPath><clipPath
       clipPathUnits="userSpaceOnUse"
       id="clipPath507"><path
         id="path509"
         d="m 3382.39,3505.38 c -105.85,-52.93 -141.72,0 -239.8,39.99 -49.59,20.19 -58.35,-4.14 -67.07,-28.47 -8.53,-23.82 -17.02,-47.65 -63.76,-29.67 -94.48,36.32 -109.05,61.78 -192.62,76.32 -83.56,14.53 25.43,94.49 -32.71,127.16 -58.15,32.72 -261.64,-54.49 -327.05,-69.02 -29.2,-6.49 -48.99,5.13 -65.19,16.75 -20.07,14.4 -34.62,28.81 -54.74,8.7 -36.33,-36.38 -138.1,-94.52 -138.1,-159.91 0,-65.41 -43.57,-47.25 -156.24,-116.3 -112.65,-69.04 -119.92,-207.13 -119.92,-254.38 0,-47.24 -61.8,-138.09 -76.31,-159.9 -14.53,-21.8 7.28,-69.04 61.78,-112.65 54.5,-43.59 36.32,-116.27 105.38,-163.51 69.04,-47.24 83.57,-90.88 116.29,-76.32 32.7,14.51 112.66,43.58 159.9,14.51 23.9,-14.71 67.36,8.75 111.52,32.2 43.1,22.89 86.87,45.79 113.79,33.21 54.48,-25.42 72.69,-83.55 141.72,-83.55 69.02,0 72.66,-65.43 47.25,-116.32 -25.46,-50.85 -21.8,-87.2 25.41,-127.17 47.25,-40 50.89,-58.12 79.97,-123.56 29.1,-65.41 14.5301,-119.93 32.68,-152.63 18.19,-32.7 7.28,-65.4099 -29.07,-105.4 -36.33,-39.9601 -32.69,-94.48 3.6401,-163.51 36.3501,-69.05 69.0601,-105.39 69.0601,-167.1699 0,-61.8002 21.7899,-101.7601 50.8699,-138.1201 29.07,-36.3001 87.24,-101.72 76.3101,-141.68 -10.9001,-40 14.55,-76.34 72.69,-58.1601 58.15,18.1601 119.9299,-14.5293 210.77,50.86 90.8599,65.4201 156.2699,119.9201 159.92,167.1801 3.6002,47.2501 39.9399,79.93 83.5499,94.46 43.61,14.5496 32.72,79.98 3.6406,130.85 -29.0501,50.8701 21.8,65.41 112.7,94.5 90.8298,29.05 116.25,72.64 101.7199,207.11 -14.5395,134.46 -50.9001,272.58 14.5293,312.53 65.4,39.98 225.31,203.49 276.1901,337.97 50.8799,134.45 29.0799,181.69 -3.6508,167.16 -32.7001,-14.5301 -119.9201,-65.42 -156.2501,-47.25 -36.3291,18.18 -58.1492,123.56 -138.0891,178.08 -79.94,54.52 -98.1,98.1 -127.18,181.68 -29.1001,83.59 -69.05,94.51 -109.02,163.57 -40,69.03 -69.06,192.58 -134.51,159.86"
         style="stroke-width:0.999999" /></clipPath><clipPath
       clipPathUnits="userSpaceOnUse"
       id="clipPath503"><path
         id="path505"
         d="m 3382.39,3505.38 c -105.85,-52.93 -141.72,0 -239.8,39.99 -49.59,20.19 -58.35,-4.14 -67.07,-28.47 -8.53,-23.82 -17.02,-47.65 -63.76,-29.67 -94.48,36.32 -109.05,61.78 -192.62,76.32 -83.56,14.53 25.43,94.49 -32.71,127.16 -58.15,32.72 -261.64,-54.49 -327.05,-69.02 -29.2,-6.49 -48.99,5.13 -65.19,16.75 -20.07,14.4 -34.62,28.81 -54.74,8.7 -36.33,-36.38 -138.1,-94.52 -138.1,-159.91 0,-65.41 -43.57,-47.25 -156.24,-116.3 -112.65,-69.04 -119.92,-207.13 -119.92,-254.38 0,-47.24 -61.8,-138.09 -76.31,-159.9 -14.53,-21.8 7.28,-69.04 61.78,-112.65 54.5,-43.59 36.32,-116.27 105.38,-163.51 69.04,-47.24 83.57,-90.88 116.29,-76.32 32.7,14.51 112.66,43.58 159.9,14.51 23.9,-14.71 67.36,8.75 111.52,32.2 43.1,22.89 86.87,45.79 113.79,33.21 54.48,-25.42 72.69,-83.55 141.72,-83.55 69.02,0 72.66,-65.43 47.25,-116.32 -25.46,-50.85 -21.8,-87.2 25.41,-127.17 47.25,-40 50.89,-58.12 79.97,-123.56 29.1,-65.41 14.5301,-119.93 32.68,-152.63 18.19,-32.7 7.28,-65.4099 -29.07,-105.4 -36.33,-39.9601 -32.69,-94.48 3.6401,-163.51 36.3501,-69.05 69.0601,-105.39 69.0601,-167.1699 0,-61.8002 21.7899,-101.7601 50.8699,-138.1201 29.07,-36.3001 87.24,-101.72 76.3101,-141.68 -10.9001,-40 14.55,-76.34 72.69,-58.1601 58.15,18.1601 119.9299,-14.5293 210.77,50.86 90.8599,65.4201 156.2699,119.9201 159.92,167.1801 3.6002,47.2501 39.9399,79.93 83.5499,94.46 43.61,14.5496 32.72,79.98 3.6406,130.85 -29.0501,50.8701 21.8,65.41 112.7,94.5 90.8298,29.05 116.25,72.64 101.7199,207.11 -14.5395,134.46 -50.9001,272.58 14.5293,312.53 65.4,39.98 225.31,203.49 276.1901,337.97 50.8799,134.45 29.0799,181.69 -3.6508,167.16 -32.7001,-14.5301 -119.9201,-65.42 -156.2501,-47.25 -36.3291,18.18 -58.1492,123.56 -138.0891,178.08 -79.94,54.52 -98.1,98.1 -127.18,181.68 -29.1001,83.59 -69.05,94.51 -109.02,163.57 -40,69.03 -69.06,192.58 -134.51,159.86"
         style="stroke-width:0.999999" /></clipPath><clipPath
       clipPathUnits="userSpaceOnUse"
       id="clipPath499"><path
         id="path501"
         d="m 3382.39,3505.38 c -105.85,-52.93 -141.72,0 -239.8,39.99 -49.59,20.19 -58.35,-4.14 -67.07,-28.47 -8.53,-23.82 -17.02,-47.65 -63.76,-29.67 -94.48,36.32 -109.05,61.78 -192.62,76.32 -83.56,14.53 25.43,94.49 -32.71,127.16 -58.15,32.72 -261.64,-54.49 -327.05,-69.02 -29.2,-6.49 -48.99,5.13 -65.19,16.75 -20.07,14.4 -34.62,28.81 -54.74,8.7 -36.33,-36.38 -138.1,-94.52 -138.1,-159.91 0,-65.41 -43.57,-47.25 -156.24,-116.3 -112.65,-69.04 -119.92,-207.13 -119.92,-254.38 0,-47.24 -61.8,-138.09 -76.31,-159.9 -14.53,-21.8 7.28,-69.04 61.78,-112.65 54.5,-43.59 36.32,-116.27 105.38,-163.51 69.04,-47.24 83.57,-90.88 116.29,-76.32 32.7,14.51 112.66,43.58 159.9,14.51 23.9,-14.71 67.36,8.75 111.52,32.2 43.1,22.89 86.87,45.79 113.79,33.21 54.48,-25.42 72.69,-83.55 141.72,-83.55 69.02,0 72.66,-65.43 47.25,-116.32 -25.46,-50.85 -21.8,-87.2 25.41,-127.17 47.25,-40 50.89,-58.12 79.97,-123.56 29.1,-65.41 14.5301,-119.93 32.68,-152.63 18.19,-32.7 7.28,-65.4099 -29.07,-105.4 -36.33,-39.9601 -32.69,-94.48 3.6401,-163.51 36.3501,-69.05 69.0601,-105.39 69.0601,-167.1699 0,-61.8002 21.7899,-101.7601 50.8699,-138.1201 29.07,-36.3001 87.24,-101.72 76.3101,-141.68 -10.9001,-40 14.55,-76.34 72.69,-58.1601 58.15,18.1601 119.9299,-14.5293 210.77,50.86 90.8599,65.4201 156.2699,119.9201 159.92,167.1801 3.6002,47.2501 39.9399,79.93 83.5499,94.46 43.61,14.5496 32.72,79.98 3.6406,130.85 -29.0501,50.8701 21.8,65.41 112.7,94.5 90.8298,29.05 116.25,72.64 101.7199,207.11 -14.5395,134.46 -50.9001,272.58 14.5293,312.53 65.4,39.98 225.31,203.49 276.1901,337.97 50.8799,134.45 29.0799,181.69 -3.6508,167.16 -32.7001,-14.5301 -119.9201,-65.42 -156.2501,-47.25 -36.3291,18.18 -58.1492,123.56 -138.0891,178.08 -79.94,54.52 -98.1,98.1 -127.18,181.68 -29.1001,83.59 -69.05,94.51 -109.02,163.57 -40,69.03 -69.06,192.58 -134.51,159.86"
         style="stroke-width:0.999999" /></clipPath><clipPath
       clipPathUnits="userSpaceOnUse"
       id="clipPath495"><path
         id="path497"
         d="m 3382.39,3505.38 c -105.85,-52.93 -141.72,0 -239.8,39.99 -49.59,20.19 -58.35,-4.14 -67.07,-28.47 -8.53,-23.82 -17.02,-47.65 -63.76,-29.67 -94.48,36.32 -109.05,61.78 -192.62,76.32 -83.56,14.53 25.43,94.49 -32.71,127.16 -58.15,32.72 -261.64,-54.49 -327.05,-69.02 -29.2,-6.49 -48.99,5.13 -65.19,16.75 -20.07,14.4 -34.62,28.81 -54.74,8.7 -36.33,-36.38 -138.1,-94.52 -138.1,-159.91 0,-65.41 -43.57,-47.25 -156.24,-116.3 -112.65,-69.04 -119.92,-207.13 -119.92,-254.38 0,-47.24 -61.8,-138.09 -76.31,-159.9 -14.53,-21.8 7.28,-69.04 61.78,-112.65 54.5,-43.59 36.32,-116.27 105.38,-163.51 69.04,-47.24 83.57,-90.88 116.29,-76.32 32.7,14.51 112.66,43.58 159.9,14.51 23.9,-14.71 67.36,8.75 111.52,32.2 43.1,22.89 86.87,45.79 113.79,33.21 54.48,-25.42 72.69,-83.55 141.72,-83.55 69.02,0 72.66,-65.43 47.25,-116.32 -25.46,-50.85 -21.8,-87.2 25.41,-127.17 47.25,-40 50.89,-58.12 79.97,-123.56 29.1,-65.41 14.5301,-119.93 32.68,-152.63 18.19,-32.7 7.28,-65.4099 -29.07,-105.4 -36.33,-39.9601 -32.69,-94.48 3.6401,-163.51 36.3501,-69.05 69.0601,-105.39 69.0601,-167.1699 0,-61.8002 21.7899,-101.7601 50.8699,-138.1201 29.07,-36.3001 87.24,-101.72 76.3101,-141.68 -10.9001,-40 14.55,-76.34 72.69,-58.1601 58.15,18.1601 119.9299,-14.5293 210.77,50.86 90.8599,65.4201 156.2699,119.9201 159.92,167.1801 3.6002,47.2501 39.9399,79.93 83.5499,94.46 43.61,14.5496 32.72,79.98 3.6406,130.85 -29.0501,50.8701 21.8,65.41 112.7,94.5 90.8298,29.05 116.25,72.64 101.7199,207.11 -14.5395,134.46 -50.9001,272.58 14.5293,312.53 65.4,39.98 225.31,203.49 276.1901,337.97 50.8799,134.45 29.0799,181.69 -3.6508,167.16 -32.7001,-14.5301 -119.9201,-65.42 -156.2501,-47.25 -36.3291,18.18 -58.1492,123.56 -138.0891,178.08 -79.94,54.52 -98.1,98.1 -127.18,181.68 -29.1001,83.59 -69.05,94.51 -109.02,163.57 -40,69.03 -69.06,192.58 -134.51,159.86"
         style="stroke-width:0.999999" /></clipPath><clipPath
       clipPathUnits="userSpaceOnUse"
       id="clipPath491"><path
         id="path493"
         d="m 3382.39,3505.38 c -105.85,-52.93 -141.72,0 -239.8,39.99 -49.59,20.19 -58.35,-4.14 -67.07,-28.47 -8.53,-23.82 -17.02,-47.65 -63.76,-29.67 -94.48,36.32 -109.05,61.78 -192.62,76.32 -83.56,14.53 25.43,94.49 -32.71,127.16 -58.15,32.72 -261.64,-54.49 -327.05,-69.02 -29.2,-6.49 -48.99,5.13 -65.19,16.75 -20.07,14.4 -34.62,28.81 -54.74,8.7 -36.33,-36.38 -138.1,-94.52 -138.1,-159.91 0,-65.41 -43.57,-47.25 -156.24,-116.3 -112.65,-69.04 -119.92,-207.13 -119.92,-254.38 0,-47.24 -61.8,-138.09 -76.31,-159.9 -14.53,-21.8 7.28,-69.04 61.78,-112.65 54.5,-43.59 36.32,-116.27 105.38,-163.51 69.04,-47.24 83.57,-90.88 116.29,-76.32 32.7,14.51 112.66,43.58 159.9,14.51 23.9,-14.71 67.36,8.75 111.52,32.2 43.1,22.89 86.87,45.79 113.79,33.21 54.48,-25.42 72.69,-83.55 141.72,-83.55 69.02,0 72.66,-65.43 47.25,-116.32 -25.46,-50.85 -21.8,-87.2 25.41,-127.17 47.25,-40 50.89,-58.12 79.97,-123.56 29.1,-65.41 14.5301,-119.93 32.68,-152.63 18.19,-32.7 7.28,-65.4099 -29.07,-105.4 -36.33,-39.9601 -32.69,-94.48 3.6401,-163.51 36.3501,-69.05 69.0601,-105.39 69.0601,-167.1699 0,-61.8002 21.7899,-101.7601 50.8699,-138.1201 29.07,-36.3001 87.24,-101.72 76.3101,-141.68 -10.9001,-40 14.55,-76.34 72.69,-58.1601 58.15,18.1601 119.9299,-14.5293 210.77,50.86 90.8599,65.4201 156.2699,119.9201 159.92,167.1801 3.6002,47.2501 39.9399,79.93 83.5499,94.46 43.61,14.5496 32.72,79.98 3.6406,130.85 -29.0501,50.8701 21.8,65.41 112.7,94.5 90.8298,29.05 116.25,72.64 101.7199,207.11 -14.5395,134.46 -50.9001,272.58 14.5293,312.53 65.4,39.98 225.31,203.49 276.1901,337.97 50.8799,134.45 29.0799,181.69 -3.6508,167.16 -32.7001,-14.5301 -119.9201,-65.42 -156.2501,-47.25 -36.3291,18.18 -58.1492,123.56 -138.0891,178.08 -79.94,54.52 -98.1,98.1 -127.18,181.68 -29.1001,83.59 -69.05,94.51 -109.02,163.57 -40,69.03 -69.06,192.58 -134.51,159.86"
         style="stroke-width:0.999999" /></clipPath><clipPath
       clipPathUnits="userSpaceOnUse"
       id="clipPath486"><path
         id="path489"
         d="m 3382.39,3505.38 c -105.85,-52.93 -141.72,0 -239.8,39.99 -49.59,20.19 -58.35,-4.14 -67.07,-28.47 -8.53,-23.82 -17.02,-47.65 -63.76,-29.67 -94.48,36.32 -109.05,61.78 -192.62,76.32 -83.56,14.53 25.43,94.49 -32.71,127.16 -58.15,32.72 -261.64,-54.49 -327.05,-69.02 -29.2,-6.49 -48.99,5.13 -65.19,16.75 -20.07,14.4 -34.62,28.81 -54.74,8.7 -36.33,-36.38 -138.1,-94.52 -138.1,-159.91 0,-65.41 -43.57,-47.25 -156.24,-116.3 -112.65,-69.04 -119.92,-207.13 -119.92,-254.38 0,-47.24 -61.8,-138.09 -76.31,-159.9 -14.53,-21.8 7.28,-69.04 61.78,-112.65 54.5,-43.59 36.32,-116.27 105.38,-163.51 69.04,-47.24 83.57,-90.88 116.29,-76.32 32.7,14.51 112.66,43.58 159.9,14.51 23.9,-14.71 67.36,8.75 111.52,32.2 43.1,22.89 86.87,45.79 113.79,33.21 54.48,-25.42 72.69,-83.55 141.72,-83.55 69.02,0 72.66,-65.43 47.25,-116.32 -25.46,-50.85 -21.8,-87.2 25.41,-127.17 47.25,-40 50.89,-58.12 79.97,-123.56 29.1,-65.41 14.5301,-119.93 32.68,-152.63 18.19,-32.7 7.28,-65.4099 -29.07,-105.4 -36.33,-39.9601 -32.69,-94.48 3.6401,-163.51 36.3501,-69.05 69.0601,-105.39 69.0601,-167.1699 0,-61.8002 21.7899,-101.7601 50.8699,-138.1201 29.07,-36.3001 87.24,-101.72 76.3101,-141.68 -10.9001,-40 14.55,-76.34 72.69,-58.1601 58.15,18.1601 119.9299,-14.5293 210.77,50.86 90.8599,65.4201 156.2699,119.9201 159.92,167.1801 3.6002,47.2501 39.9399,79.93 83.5499,94.46 43.61,14.5496 32.72,79.98 3.6406,130.85 -29.0501,50.8701 21.8,65.41 112.7,94.5 90.8298,29.05 116.25,72.64 101.7199,207.11 -14.5395,134.46 -50.9001,272.58 14.5293,312.53 65.4,39.98 225.31,203.49 276.1901,337.97 50.8799,134.45 29.0799,181.69 -3.6508,167.16 -32.7001,-14.5301 -119.9201,-65.42 -156.2501,-47.25 -36.3291,18.18 -58.1492,123.56 -138.0891,178.08 -79.94,54.52 -98.1,98.1 -127.18,181.68 -29.1001,83.59 -69.05,94.51 -109.02,163.57 -40,69.03 -69.06,192.58 -134.51,159.86"
         style="stroke-width:0.999999" /></clipPath><linearGradient
       id="linearGradient16535"
       x1="52.279999"
       y1="108.99"
       x2="197.25"
       y2="108.99"
       gradientUnits="userSpaceOnUse"><stop
         offset="0"
         stop-color="#f23514"
         id="stop16529"
         style="stop-color:#0b7ebf;stop-opacity:1;" /><stop
         offset="0.49000001"
         stop-color="#f87458"
         id="stop16531"
         style="stop-color:#58c5f8;stop-opacity:1;" /><stop
         offset="1"
         stop-color="#f6e813"
         id="stop16533"
         style="stop-color:#ffffff;stop-opacity:1;" /></linearGradient><linearGradient
       id="linearGradient15197"
       x1="52.279999"
       y1="108.99"
       x2="197.25"
       y2="108.99"
       gradientUnits="userSpaceOnUse"><stop
         offset="0"
         stop-color="#f23514"
         id="stop15191"
         style="stop-color:#4ebf0b;stop-opacity:1;" /><stop
         offset="0.49000001"
         stop-color="#f87458"
         id="stop15193"
         style="stop-color:#d7f858;stop-opacity:1;" /><stop
         offset="1"
         stop-color="#f6e813"
         id="stop15195"
         style="stop-color:#ffffff;stop-opacity:1;" /></linearGradient><linearGradient
       id="linearGradient15109"
       x1="52.279999"
       y1="108.99"
       x2="197.25"
       y2="108.99"
       gradientUnits="userSpaceOnUse"><stop
         offset="0"
         stop-color="#f23514"
         id="stop15103"
         style="stop-color:#c30000;stop-opacity:1;" /><stop
         offset="0.49000001"
         stop-color="#f87458"
         id="stop15105"
         style="stop-color:#f85858;stop-opacity:1;" /><stop
         offset="1"
         stop-color="#f6e813"
         id="stop15107"
         style="stop-color:#f6c713;stop-opacity:1;" /></linearGradient><linearGradient
       id="linearGradient14417"
       x1="317.16"
       y1="350.89001"
       x2="388.10999"
       y2="350.89001"
       gradientUnits="userSpaceOnUse"><stop
         offset="0"
         stop-color="#18eff2"
         id="stop14411" /><stop
         offset="0.5"
         stop-color="#109ef5"
         id="stop14413" /><stop
         offset="1"
         stop-color="#144ccb"
         id="stop14415"
         style="stop-color:#2764ea;stop-opacity:1;" /></linearGradient><linearGradient
       id="linearGradient13733"
       x1="71.309998"
       y1="357.32001"
       x2="172.78999"
       y2="357.32001"
       gradientUnits="userSpaceOnUse"><stop
         offset="0"
         stop-color="#2154c4"
         id="stop13727"
         style="stop-color:#3576ff;stop-opacity:1;" /><stop
         offset="0.49000001"
         stop-color="#16a8d1"
         id="stop13729"
         style="stop-color:#2cbbe8;stop-opacity:1;" /><stop
         offset="1"
         stop-color="#22e2a7"
         id="stop13731" /></linearGradient><linearGradient
       id="linearGradient9666"
       x1="71.309998"
       y1="357.32001"
       x2="172.78999"
       y2="357.32001"
       gradientUnits="userSpaceOnUse"><stop
         offset="0"
         stop-color="#2154c4"
         id="stop9660"
         style="stop-color:#003fcd;stop-opacity:1;" /><stop
         offset="0.49"
         stop-color="#16a8d1"
         id="stop9662" /><stop
         offset="1"
         stop-color="#22e2a7"
         id="stop9664" /></linearGradient><linearGradient
       id="linearGradient7820"
       x1="71.309998"
       y1="357.32001"
       x2="172.78999"
       y2="357.32001"
       gradientUnits="userSpaceOnUse"><stop
         offset="0"
         stop-color="#2154c4"
         id="stop7814"
         style="stop-color:#3102e4;stop-opacity:1;" /><stop
         offset="0.49"
         stop-color="#16a8d1"
         id="stop7816" /><stop
         offset="1"
         stop-color="#22e2a7"
         id="stop7818"
         style="stop-color:#23c797;stop-opacity:1;" /></linearGradient><style
       id="style162">.cls-1{fill:#fff;}.cls-2{fill:url(#linear-gradient);}.cls-3{fill:url(#linear-gradient-2);}.cls-4{fill:url(#linear-gradient-3);}.cls-5{font-size:22.37px;}.cls-16,.cls-18,.cls-22,.cls-26,.cls-5,.cls-6,.cls-7{fill:#140077;}.cls-16,.cls-26,.cls-5{font-family:Montserrat-ExtraBold, Montserrat ExtraBold;font-weight:800;}.cls-22,.cls-6{font-size:10.65px;}.cls-18,.cls-22,.cls-6{font-family:Roboto-Regular, Roboto;}.cls-8{fill:url(#linear-gradient-4);}.cls-9{fill:url(#linear-gradient-5);}.cls-10{fill:url(#linear-gradient-6);}.cls-11{fill:url(#linear-gradient-7);}.cls-12{fill:url(#linear-gradient-8);}.cls-13{fill:url(#linear-gradient-9);}.cls-14{fill:url(#linear-gradient-10);}.cls-15{fill:url(#linear-gradient-11);}.cls-16{font-size:26.81px;}.cls-17{letter-spacing:-0.02em;}.cls-18{font-size:10.98px;letter-spacing:0.48em;}.cls-19{letter-spacing:0.45em;}.cls-20{letter-spacing:0.48em;}.cls-21{fill:url(#linear-gradient-12);}.cls-22{letter-spacing:0.48em;}.cls-23{letter-spacing:0.45em;}.cls-24{fill:url(#linear-gradient-13);}.cls-25{fill:url(#linear-gradient-14);}.cls-26{font-size:28.04px;}.cls-27{letter-spacing:-0.08em;}</style><linearGradient
       id="linear-gradient-2"
       x1="423.47"
       y1="110.51"
       x2="336.48001"
       y2="204.27"
       xlink:href="#linearGradient6" /><linearGradient
       id="linear-gradient-3"
       x1="423.48001"
       y1="110.5"
       x2="336.48001"
       y2="204.27"
       xlink:href="#linearGradient6" /><linearGradient
       id="linear-gradient-4"
       x1="183.13"
       y1="315.34"
       x2="104.23"
       y2="401.17999"
       xlink:href="#linearGradient6" /><linearGradient
       id="linear-gradient-5"
       x1="187.60001"
       y1="319.45001"
       x2="108.7"
       y2="405.29001"
       xlink:href="#linearGradient6" /><linearGradient
       id="linear-gradient-6"
       x1="194.66"
       y1="325.94"
       x2="115.76"
       y2="411.78"
       xlink:href="#linearGradient6" /><linearGradient
       id="linear-gradient-7"
       x1="203.28"
       y1="333.85999"
       x2="124.37"
       y2="419.70001"
       xlink:href="#linearGradient6" /><linearGradient
       id="linear-gradient-8"
       x1="210.72"
       y1="340.70001"
       x2="131.81"
       y2="426.54001"
       xlink:href="#linearGradient6" /><linearGradient
       id="linear-gradient-9"
       x1="637.38"
       y1="324.17001"
       x2="555.19"
       y2="402.92999"
       xlink:href="#linearGradient6" /><linearGradient
       id="linear-gradient-10"
       x1="422.44"
       y1="329.45001"
       x2="321.38"
       y2="411.76001"
       xlink:href="#linearGradient6" /><linearGradient
       id="linear-gradient-11"
       x1="418.76001"
       y1="324.94"
       x2="317.70001"
       y2="407.25"
       xlink:href="#linearGradient6" /><linearGradient
       id="linear-gradient-12"
       x1="609.53998"
       y1="91.339996"
       x2="544.56"
       y2="164.31"
       xlink:href="#linearGradient6" /><linearGradient
       id="linear-gradient-13"
       x1="186.38"
       y1="69.400002"
       x2="118.4"
       y2="162.53"
       xlink:href="#linearGradient6" /><linearGradient
       id="linear-gradient-14"
       x1="186.35001"
       y1="69.440002"
       x2="118.41"
       y2="162.53"
       xlink:href="#linearGradient6" /><style
       id="style483">.cls-1{fill:#180f43;}.cls-2{fill:url(#radial-gradient);}.cls-3{fill:url(#radial-gradient-2);}.cls-4{fill:url(#linear-gradient);}.cls-5{fill:url(#linear-gradient-2);}.cls-6{fill:url(#linear-gradient-3);}.cls-7{fill:url(#linear-gradient-4);}.cls-8{fill:url(#linear-gradient-5);}.cls-9{fill:url(#linear-gradient-6);}.cls-10{fill:url(#linear-gradient-7);}.cls-11{fill:url(#linear-gradient-8);}.cls-12{fill:url(#linear-gradient-9);}.cls-13{fill:url(#linear-gradient-10);}.cls-14{fill:url(#linear-gradient-11);}.cls-15,.cls-48{font-size:9px;font-family:OpenSans;letter-spacing:0.33em;}.cls-15,.cls-18,.cls-41{fill:#fff;}.cls-16{letter-spacing:0.39em;}.cls-17{letter-spacing:0.4em;}.cls-18,.cls-41{font-size:28.17px;font-family:BebasNeueBold;}.cls-18{letter-spacing:0.1em;}.cls-19{letter-spacing:0.02em;}.cls-20,.cls-41{letter-spacing:0.1em;}.cls-21{fill-rule:evenodd;fill:url(#linear-gradient-12);}.cls-22{fill:url(#linear-gradient-13);}.cls-23{fill:url(#linear-gradient-14);}.cls-24{fill:url(#linear-gradient-15);}.cls-25{fill:url(#linear-gradient-16);}.cls-26{fill:url(#linear-gradient-17);}.cls-27{fill:url(#linear-gradient-18);}.cls-28{fill:url(#linear-gradient-19);}.cls-29{fill:url(#linear-gradient-20);}.cls-30{fill:url(#linear-gradient-21);}.cls-31{fill:url(#linear-gradient-22);}.cls-32{fill:url(#linear-gradient-23);}.cls-33{fill:url(#linear-gradient-24);}.cls-34{fill:url(#linear-gradient-25);}.cls-35{fill:url(#linear-gradient-26);}.cls-36{fill:url(#linear-gradient-27);}.cls-37{fill:url(#linear-gradient-28);}.cls-38{fill:url(#linear-gradient-29);}.cls-39{fill:url(#linear-gradient-30);}.cls-40{fill:url(#linear-gradient-31);}.cls-42{fill:url(#linear-gradient-32);}.cls-43{fill:url(#linear-gradient-33);}.cls-44{fill:url(#linear-gradient-34);}.cls-45{fill:url(#linear-gradient-35);}.cls-46{fill:url(#linear-gradient-36);}.cls-47{fill:url(#linear-gradient-37);}.cls-48{fill:#6d6e71;}.cls-49,.cls-51{font-size:24.67px;fill:#231f20;font-family:Montserrat-ExtraBold, Montserrat ExtraBold;font-weight:800;}.cls-49{letter-spacing:0.06em;}.cls-50{letter-spacing:0.02em;}.cls-51{letter-spacing:0.1em;}.cls-52{fill:url(#linear-gradient-38);}.cls-53{fill:url(#linear-gradient-39);}.cls-54{fill:url(#linear-gradient-40);}</style><radialGradient
       id="radial-gradient"
       cx="132.32001"
       cy="435.04001"
       r="248.57001"
       gradientTransform="matrix(0.63,0,0,0.68,292.3,80.69)"
       gradientUnits="userSpaceOnUse"><stop
         offset="0"
         stop-color="#fff"
         stop-opacity="0"
         id="stop485" /><stop
         offset="0.13"
         stop-color="#fff"
         stop-opacity="0.02"
         id="stop487" /><stop
         offset="0.26"
         stop-color="#fdfdfd"
         stop-opacity="0.07"
         id="stop489" /><stop
         offset="0.39"
         stop-color="#fbfbfb"
         stop-opacity="0.16"
         id="stop491" /><stop
         offset="0.53"
         stop-color="#f8f8f8"
         stop-opacity="0.29"
         id="stop493" /><stop
         offset="0.66"
         stop-color="#f4f4f5"
         stop-opacity="0.45"
         id="stop495" /><stop
         offset="0.8"
         stop-color="#efeff0"
         stop-opacity="0.65"
         id="stop497" /><stop
         offset="0.94"
         stop-color="#e9eaeb"
         stop-opacity="0.88"
         id="stop499" /><stop
         offset="1"
         stop-color="#e6e7e8"
         id="stop501" /></radialGradient><radialGradient
       id="radial-gradient-2"
       cx="-267.67999"
       cy="65.489998"
       r="269.10001"
       gradientTransform="matrix(0.63,0,0,0.68,292.3,80.69)"
       gradientUnits="userSpaceOnUse"><stop
         offset="0"
         stop-color="#fff"
         stop-opacity="0"
         id="stop504" /><stop
         offset="0.1"
         stop-color="#fefefe"
         stop-opacity="0.03"
         id="stop506" /><stop
         offset="0.23"
         stop-color="#fdfdfd"
         stop-opacity="0.1"
         id="stop508" /><stop
         offset="0.38"
         stop-color="#f9fafa"
         stop-opacity="0.22"
         id="stop510" /><stop
         offset="0.55"
         stop-color="#f5f6f6"
         stop-opacity="0.39"
         id="stop512" /><stop
         offset="0.73"
         stop-color="#f0f0f1"
         stop-opacity="0.61"
         id="stop514" /><stop
         offset="0.91"
         stop-color="#e9eaeb"
         stop-opacity="0.87"
         id="stop516" /><stop
         offset="1"
         stop-color="#e6e7e8"
         id="stop518" /></radialGradient><linearGradient
       id="linear-gradient-1"
       x1="71.309998"
       y1="357.32001"
       x2="172.78999"
       y2="357.32001"
       gradientUnits="userSpaceOnUse"><stop
         offset="0"
         stop-color="#2154c4"
         id="stop521" /><stop
         offset="0.49"
         stop-color="#16a8d1"
         id="stop523" /><stop
         offset="1"
         stop-color="#22e2a7"
         id="stop525" /></linearGradient><linearGradient
       id="linear-gradient-2-8"
       x1="71.300003"
       y1="357.14999"
       x2="172.8"
       y2="357.14999"
       xlink:href="#linear-gradient-1"
       gradientTransform="matrix(0.26458334,0,0,0.26458334,-221.20061,166.15832)" /><linearGradient
       id="linear-gradient-3-8"
       x1="71.32"
       y1="361"
       x2="172.8"
       y2="361"
       xlink:href="#linear-gradient-1"
       gradientTransform="matrix(0.26458334,0,0,0.26458334,-221.20061,166.15832)" /><linearGradient
       id="linear-gradient-4-4"
       x1="71.290001"
       y1="357.14999"
       x2="172.81"
       y2="357.14999"
       xlink:href="#linear-gradient-1"
       gradientTransform="matrix(0.26458334,0,0,0.26458334,-221.20061,166.15832)" /><linearGradient
       id="linear-gradient-5-0"
       x1="71.309998"
       y1="357.14999"
       x2="172.78"
       y2="357.14999"
       xlink:href="#linear-gradient-1"
       gradientTransform="matrix(0.26458334,0,0,0.26458334,-221.20061,166.15832)" /><linearGradient
       id="linear-gradient-6-4"
       x1="71.32"
       y1="357.14999"
       x2="172.8"
       y2="357.14999"
       xlink:href="#linear-gradient-1"
       gradientTransform="matrix(0.26458334,0,0,0.26458334,-221.20061,166.15832)" /><linearGradient
       id="linear-gradient-7-1"
       x1="71.300003"
       y1="357.14999"
       x2="172.81"
       y2="357.14999"
       xlink:href="#linear-gradient-1"
       gradientTransform="matrix(0.26458334,0,0,0.26458334,-221.20061,166.15832)" /><linearGradient
       id="linear-gradient-9-8"
       x1="71.290001"
       y1="358"
       x2="172.83"
       y2="358"
       xlink:href="#linear-gradient-1"
       gradientTransform="matrix(0.26458334,0,0,0.26458334,-221.20061,166.15832)" /><linearGradient
       id="linear-gradient-10-8"
       x1="71.269997"
       y1="358"
       x2="172.81"
       y2="358"
       xlink:href="#linear-gradient-1"
       gradientTransform="matrix(0.26458334,0,0,0.26458334,-221.20061,166.15832)" /><linearGradient
       id="linear-gradient-11-7"
       x1="72.470001"
       y1="336.25"
       x2="171.69"
       y2="336.25"
       xlink:href="#linear-gradient-1"
       gradientTransform="matrix(0.26458334,0,0,0.26458334,-221.20061,166.15832)" /><linearGradient
       id="linear-gradient-13-0"
       x1="321.32999"
       y1="114.78"
       x2="430.81"
       y2="114.78"
       xlink:href="#linearGradient14"
       gradientTransform="matrix(0.26458334,0,0,0.26458334,-221.20061,166.15832)" /><linearGradient
       id="linear-gradient-14-9"
       x1="321.32999"
       y1="122.23"
       x2="430.81"
       y2="122.23"
       xlink:href="#linearGradient14"
       gradientTransform="matrix(0.26458334,0,0,0.26458334,-221.20061,166.15832)" /><linearGradient
       id="linear-gradient-15"
       x1="321.32999"
       y1="129.67999"
       x2="430.81"
       y2="129.67999"
       xlink:href="#linearGradient14"
       gradientTransform="matrix(0.26458334,0,0,0.26458334,-221.20061,166.15832)" /><linearGradient
       id="linear-gradient-16"
       x1="321.34"
       y1="114.78"
       x2="430.79999"
       y2="114.78"
       xlink:href="#linearGradient14"
       gradientTransform="matrix(0.26458334,0,0,0.26458334,-221.20061,166.15832)" /><linearGradient
       id="linear-gradient-17"
       x1="321.34"
       y1="122.23"
       x2="430.79999"
       y2="122.23"
       xlink:href="#linearGradient14" /><linearGradient
       id="linear-gradient-18"
       x1="321.34"
       y1="129.67999"
       x2="430.79999"
       y2="129.67999"
       xlink:href="#linearGradient14" /><linearGradient
       id="linear-gradient-19"
       x1="321.32999"
       y1="92.419998"
       x2="430.79999"
       y2="92.419998"
       xlink:href="#linearGradient14"
       gradientTransform="matrix(0.26458334,0,0,0.26458334,-221.20061,166.15832)" /><linearGradient
       id="linear-gradient-20"
       x1="321.32999"
       y1="99.879997"
       x2="430.79999"
       y2="99.879997"
       xlink:href="#linearGradient14"
       gradientTransform="matrix(0.26458334,0,0,0.26458334,-221.20061,166.15832)" /><linearGradient
       id="linear-gradient-21"
       x1="321.32999"
       y1="107.33"
       x2="430.79999"
       y2="107.33"
       xlink:href="#linearGradient14"
       gradientTransform="matrix(0.26458334,0,0,0.26458334,-221.20061,166.15832)" /><linearGradient
       id="linear-gradient-22"
       x1="321.32999"
       y1="114.78"
       x2="430.79999"
       y2="114.78"
       xlink:href="#linearGradient14"
       gradientTransform="matrix(0.26458334,0,0,0.26458334,-221.20061,166.15832)" /><linearGradient
       id="linear-gradient-23"
       x1="321.32999"
       y1="122.23"
       x2="430.79999"
       y2="122.23"
       xlink:href="#linearGradient14"
       gradientTransform="matrix(0.26458334,0,0,0.26458334,-221.20061,166.15832)" /><linearGradient
       id="linear-gradient-24"
       x1="321.32999"
       y1="129.67999"
       x2="430.79999"
       y2="129.67999"
       xlink:href="#linearGradient14"
       gradientTransform="matrix(0.26458334,0,0,0.26458334,-221.20061,166.15832)" /><linearGradient
       id="linear-gradient-27"
       x1="321.32999"
       y1="107.33"
       x2="430.81"
       y2="107.33"
       xlink:href="#linearGradient14"
       gradientTransform="matrix(0.26458334,0,0,0.26458334,-221.20061,166.15832)" /><linearGradient
       id="linear-gradient-31"
       x1="321.32999"
       y1="96.769997"
       x2="430.79999"
       y2="96.769997"
       xlink:href="#linearGradient14"
       gradientTransform="matrix(0.26458334,0,0,0.26458334,-221.20061,166.15832)" /><linearGradient
       id="linear-gradient-33"
       x1="317.16"
       y1="327.59"
       x2="388.10999"
       y2="327.59"
       xlink:href="#linearGradient22"
       gradientTransform="matrix(0.26458334,0,0,0.26458334,-221.20061,166.15832)" /><linearGradient
       id="linear-gradient-34"
       x1="444.23999"
       y1="164.82001"
       x2="524.73999"
       y2="164.82001"
       gradientTransform="matrix(0.16849732,-0.16826221,0.16826221,0.16849732,-220.8249,311.44103)"
       xlink:href="#linearGradient22" /><linearGradient
       id="linear-gradient-35"
       x1="442.69"
       y1="162.77"
       x2="523.65002"
       y2="162.77"
       gradientTransform="matrix(0.16849732,-0.16826221,0.16826221,0.16849732,-220.8249,311.44103)"
       xlink:href="#linearGradient22" /><linearGradient
       id="linear-gradient-36"
       x1="445.85001"
       y1="174.97"
       x2="526.92999"
       y2="174.97"
       gradientTransform="matrix(0.16849732,-0.16826221,0.16826221,0.16849732,-220.8249,311.44103)"
       xlink:href="#linearGradient22" /><linearGradient
       id="linear-gradient-37"
       x1="447.23001"
       y1="183.39"
       x2="529.35999"
       y2="183.39"
       gradientTransform="matrix(0.16849732,-0.16826221,0.16826221,0.16849732,-220.8249,311.44103)"
       xlink:href="#linearGradient22" /><linearGradient
       id="linear-gradient-39"
       x1="52.279999"
       y1="108.99"
       x2="197.25"
       y2="108.99"
       xlink:href="#linearGradient30"
       gradientTransform="matrix(0.26458334,0,0,0.26458334,-207.0454,125.01561)" /><linearGradient
       id="linear-gradient-40"
       x1="52.279999"
       y1="96.57"
       x2="197.25"
       y2="96.57"
       xlink:href="#linearGradient30"
       gradientTransform="matrix(0.26458334,0,0,0.26458334,-207.0454,125.01561)" /><clipPath
       id="clipPath34"
       clipPathUnits="userSpaceOnUse"><path
         id="path32"
         d="m 3382.39,3505.38 c -105.85,-52.93 -141.72,0 -239.8,39.99 -49.59,20.19 -58.35,-4.14 -67.07,-28.47 -8.53,-23.82 -17.02,-47.65 -63.76,-29.67 -94.48,36.32 -109.05,61.78 -192.62,76.32 -83.56,14.53 25.43,94.49 -32.71,127.16 -58.15,32.72 -261.64,-54.49 -327.05,-69.02 -29.2,-6.49 -48.99,5.13 -65.19,16.75 -20.07,14.4 -34.62,28.81 -54.74,8.7 -36.33,-36.38 -138.1,-94.52 -138.1,-159.91 0,-65.41 -43.57,-47.25 -156.24,-116.3 -112.65,-69.04 -119.92,-207.13 -119.92,-254.38 0,-47.24 -61.8,-138.09 -76.31,-159.9 -14.53,-21.8 7.28,-69.04 61.78,-112.65 54.5,-43.59 36.32,-116.27 105.38,-163.51 69.04,-47.24 83.57,-90.88 116.29,-76.32 32.7,14.51 112.66,43.58 159.9,14.51 23.9,-14.71 67.36,8.75 111.52,32.2 43.1,22.89 86.87,45.79 113.79,33.21 54.48,-25.42 72.69,-83.55 141.72,-83.55 69.02,0 72.66,-65.43 47.25,-116.32 -25.46,-50.85 -21.8,-87.2 25.41,-127.17 47.25,-40 50.89,-58.12 79.97,-123.56 29.1,-65.41 14.53,-119.93 32.68,-152.63 18.19,-32.7 7.28,-65.41 -29.07,-105.4 -36.33,-39.96 -32.69,-94.48 3.64,-163.51 36.35,-69.05 69.06,-105.39 69.06,-167.17 0,-61.8 21.79,-101.76 50.87,-138.12 29.07,-36.3 87.24,-101.72 76.31,-141.68 -10.9,-40 14.55,-76.34 72.69,-58.16 58.15,18.16 119.93,-14.53 210.77,50.86 90.86,65.42 156.27,119.92 159.92,167.18 3.6,47.25 39.94,79.93 83.55,94.46 43.61,14.55 32.72,79.98 3.64,130.85 -29.05,50.87 21.8,65.41 112.7,94.5 90.83,29.05 116.25,72.64 101.72,207.11 -14.54,134.46 -50.9,272.58 14.53,312.53 65.4,39.98 225.31,203.49 276.19,337.97 50.88,134.45 29.08,181.69 -3.65,167.16 -32.7,-14.53 -119.92,-65.42 -156.25,-47.25 -36.33,18.18 -58.15,123.56 -138.09,178.08 -79.94,54.52 -98.1,98.1 -127.18,181.68 -29.1,83.59 -69.05,94.51 -109.02,163.57 -40,69.03 -69.06,192.58 -134.51,159.86" /></clipPath></defs><text
     xml:space="preserve"
     style="font-weight:500;font-size:4.74494px;font-family:Poppins;-inkscape-font-specification:'Poppins, Medium';fill:#000000;stroke-width:2.64592"
     x="136.2697"
     y="13.274278"
     id="text924"><tspan
       sodipodi:role="line"
       id="tspan922"
       x="136.2697"
       y="13.274278"
       style="stroke-width:2.64592" /></text><path
     id="path518"
     style="opacity:0.88;fill:#ff0000;stroke-width:0.494884;stroke-linecap:round"
     d="M 4.0849591,0.26737284 A 3.9695095,3.9695095 0 0 0 3.2058104,0.39971447 3.9695095,3.9695095 0 0 0 0.39924284,5.2613536 3.9695095,3.9695095 0 0 0 1.9433421,7.4736483 L 2.0883039,6.9320239 2.1582609,6.6705875 2.1795363,6.5916152 2.7885939,4.3194604 3.48672,1.713749 5.4635414,2.2434735 a 1.8351706,1.8351706 0 0 1 0.4298374,0.1781371 c 0.129092,0.0736 0.2541111,0.1620602 0.3566357,0.2755002 0.10253,0.1134345 0.1956201,0.2319929 0.2726157,0.354472 0.076987,0.1224847 0.1353498,0.2552988 0.1748917,0.3988266 0.026293,0.077119 0.043172,0.1603241 0.052648,0.2408818 a 1.0048083,1.0048083 0 0 1 0.021275,0.2405218 c 7.676e-4,0.086169 0.003,0.1646351 -0.00363,0.2488156 C 6.7537339,4.2628216 6.7395409,4.34527 6.7180489,4.4254774 6.677056,4.5784775 6.6158603,4.7180866 6.5402737,4.854594 6.4666736,4.9836868 6.3782113,5.1087052 6.2647734,5.2112298 A 2.0654392,2.0654392 0 0 1 5.9175138,5.4860086 C 5.7976883,5.5557589 5.6696247,5.6233253 5.5186872,5.660901 L 5.2853777,5.715349 C 5.2021597,5.732061 5.124124,5.734253 5.0372835,5.734824 4.9504435,5.7353962 4.8719263,5.737544 4.7877464,5.730844 A 2.7562448,2.7562448 0 0 1 4.5432584,5.6810809 L 3.6965644,5.4542622 3.2173239,7.2424887 3.0121413,8.008408 A 3.9695095,3.9695095 0 0 0 5.2608568,8.0682708 3.9695095,3.9695095 0 0 0 8.0674238,3.2066317 3.9695095,3.9695095 0 0 0 4.0849332,0.26736238 Z M 4.3146624,3.1478637 4.0016597,4.3158542 4.3885856,4.419708 l 0.4305596,0.1153925 0.028847,0.0083 c 0.080206,0.021487 0.1576227,0.026218 0.2361946,0.024153 a 0.65591651,0.65591651 0 0 0 0.2253763,-0.080415 c 0.07435,-0.042928 0.135802,-0.097262 0.1748918,-0.1568617 A 0.61404949,0.61404949 0 0 0 5.5890297,4.1157194 C 5.6105071,4.0355134 5.6174431,3.9505052 5.6059785,3.8773614 5.6021407,3.8055289 5.5757017,3.7285005 5.5327761,3.6541489 5.4898485,3.5797979 5.4355114,3.5183407 5.3759144,3.4792565 A 0.61404949,0.61404949 0 0 0 5.160995,3.3746817 Z" /></svg>
