<?xml version="1.0" encoding="UTF-8" standalone="no"?>
<svg
   width="263"
   height="54"
   viewBox="0 0 69.585416 14.288"
   version="1.1"
   id="svg60"
   sodipodi:docname="logo-min-white.svg"
   inkscape:version="1.2.1 (9c6d41e410, 2022-07-14)"
   xml:space="preserve"
   inkscape:export-filename="logo-new 2.png"
   inkscape:export-xdpi="96"
   inkscape:export-ydpi="96"
   xmlns:inkscape="http://www.inkscape.org/namespaces/inkscape"
   xmlns:sodipodi="http://sodipodi.sourceforge.net/DTD/sodipodi-0.dtd"
   xmlns:xlink="http://www.w3.org/1999/xlink"
   xmlns="http://www.w3.org/2000/svg"
   xmlns:svg="http://www.w3.org/2000/svg"><sodipodi:namedview
     id="namedview62"
     pagecolor="#ffffff"
     bordercolor="#000000"
     borderopacity="0.25"
     inkscape:showpageshadow="2"
     inkscape:pageopacity="0.0"
     inkscape:pagecheckerboard="0"
     inkscape:deskcolor="#d1d1d1"
     showgrid="false"
     inkscape:zoom="0.8912492"
     inkscape:cx="-167.18108"
     inkscape:cy="148.10673"
     inkscape:window-width="1366"
     inkscape:window-height="715"
     inkscape:window-x="-8"
     inkscape:window-y="-8"
     inkscape:window-maximized="1"
     inkscape:current-layer="svg60" /><defs
     id="defs34"><linearGradient
       x1="413.98999"
       y1="101.7"
       x2="326.98999"
       y2="195.47"
       gradientUnits="userSpaceOnUse"
       id="linearGradient6"><stop
         offset="0"
         stop-color="#c33764"
         id="stop2" /><stop
         offset="1"
         stop-color="#1d2671"
         id="stop4" /></linearGradient><linearGradient
       x1="321.32999"
       y1="107.33"
       x2="430.81"
       y2="107.33"
       gradientUnits="userSpaceOnUse"
       id="linearGradient14"><stop
         offset="0"
         stop-color="#fc1b7c"
         id="stop8" /><stop
         offset=".49"
         stop-color="#714cf4"
         id="stop10" /><stop
         offset="1"
         stop-color="#0084f3"
         id="stop12" /></linearGradient><linearGradient
       x1="317.16"
       y1="350.89001"
       x2="388.10999"
       y2="350.89001"
       gradientUnits="userSpaceOnUse"
       id="linearGradient22"><stop
         offset="0"
         stop-color="#18eff2"
         id="stop16" /><stop
         offset=".5"
         stop-color="#109ef5"
         id="stop18" /><stop
         offset="1"
         stop-color="#144ccb"
         id="stop20" /></linearGradient><linearGradient
       x1="52.279999"
       y1="108.99"
       x2="197.25"
       y2="108.99"
       gradientUnits="userSpaceOnUse"
       id="linearGradient30"><stop
         offset="0"
         stop-color="#f23514"
         id="stop24" /><stop
         offset=".49"
         stop-color="#f87458"
         id="stop26" /><stop
         offset="1"
         stop-color="#f6e813"
         id="stop28" /></linearGradient><path
       id="E"
       d="m 35.842,26.49 q 0,-0.421 0.172,-0.745 0.177,-0.325 0.477,-0.502 0.304,-0.183 0.669,-0.183 0.33,0 0.573,0.132 0.248,0.127 0.396,0.319 v -0.406 h 0.583 v 2.794 h -0.583 v -0.416 q -0.147,0.198 -0.401,0.33 -0.254,0.132 -0.578,0.132 -0.36,0 -0.659,-0.183 -0.299,-0.188 -0.477,-0.517 -0.172,-0.335 -0.172,-0.756 z m 2.287,0.01 q 0,-0.289 -0.122,-0.502 -0.117,-0.213 -0.309,-0.325 -0.193,-0.112 -0.416,-0.112 -0.223,0 -0.416,0.112 -0.193,0.106 -0.314,0.319 -0.117,0.208 -0.117,0.497 0,0.289 0.117,0.507 0.122,0.218 0.314,0.335 0.198,0.112 0.416,0.112 0.223,0 0.416,-0.112 0.193,-0.112 0.309,-0.325 0.122,-0.218 0.122,-0.507 z" /><path
       id="F"
       d="m 42.339,12.935 q 0,-0.399 0.161,-0.697 0.161,-0.304 0.441,-0.47 0.285,-0.166 0.631,-0.166 0.342,0 0.593,0.147 0.251,0.147 0.375,0.37 v -0.474 h 0.437 v 2.6 H 44.54 v -0.484 q -0.128,0.228 -0.384,0.38 -0.251,0.147 -0.588,0.147 -0.346,0 -0.626,-0.171 -0.28,-0.171 -0.441,-0.479 Q 42.34,13.33 42.34,12.936 Z m 2.202,0.005 q 0,-0.294 -0.119,-0.512 -0.119,-0.218 -0.323,-0.332 -0.199,-0.119 -0.441,-0.119 -0.242,0 -0.441,0.114 -0.199,0.114 -0.318,0.332 -0.119,0.218 -0.119,0.512 0,0.299 0.119,0.522 0.119,0.218 0.318,0.337 0.199,0.114 0.441,0.114 0.242,0 0.441,-0.114 0.204,-0.119 0.323,-0.337 0.119,-0.223 0.119,-0.517 z" /></defs><g
     id="g760"
     style="fill:#ffffff"><path
       d="m 34.326752,5.262 c 0,0.227 -0.032,0.433 -0.108,0.617 a 1.63,1.63 0 0 1 -0.336,0.531 c -0.152,0.162 -0.325,0.282 -0.509,0.357 a 1.54,1.54 0 0 1 -0.596,0.119 c -0.217,0 -0.422,-0.043 -0.606,-0.119 -0.184,-0.076 -0.357,-0.195 -0.509,-0.357 a 1.63,1.63 0 0 1 -0.336,-0.531 c -0.076,-0.184 -0.119,-0.39 -0.119,-0.617 a 1.7,1.7 0 0 1 0.108,-0.628 1.63,1.63 0 0 1 0.336,-0.531 c 0.152,-0.162 0.325,-0.282 0.509,-0.357 a 1.54,1.54 0 0 1 0.596,-0.119 c 0.217,0 0.422,0.043 0.606,0.119 0.184,0.076 0.357,0.195 0.509,0.357 a 1.63,1.63 0 0 1 0.336,0.531 c 0.076,0.195 0.119,0.401 0.119,0.628 z m -0.032,-2.848 v 0.812 c -0.108,-0.119 -0.227,-0.238 -0.357,-0.336 a 3.28,3.28 0 0 0 -0.411,-0.26 3.94,3.94 0 0 0 -0.455,-0.184 1.36,1.36 0 0 0 -0.466,-0.076 h -0.054 -0.054 c -0.119,0 -0.238,0.011 -0.357,0.022 l -0.347,0.076 c -0.119,0.032 -0.227,0.076 -0.347,0.119 l -0.325,0.162 c -0.217,0.108 -0.39,0.26 -0.552,0.422 -0.162,0.162 -0.303,0.357 -0.444,0.563 a 2.29,2.29 0 0 0 -0.303,0.725 3.66,3.66 0 0 0 -0.097,0.866 3.1,3.1 0 0 0 0.097,0.79 c 0.065,0.249 0.162,0.476 0.303,0.682 0.141,0.206 0.282,0.401 0.444,0.563 a 2.1,2.1 0 0 0 0.552,0.411 l 0.325,0.162 0.347,0.119 a 3.97,3.97 0 0 0 0.347,0.076 l 0.347,0.022 h 0.108 0.054 c 0.022,0 0.043,0 0.054,-0.011 0.184,-0.011 0.357,-0.043 0.509,-0.097 a 2.75,2.75 0 0 0 0.444,-0.195 1.52,1.52 0 0 0 0.357,-0.26 2.4,2.4 0 0 0 0.282,-0.303 v 0.455 0.238 a 1.43,1.43 0 0 1 -0.108,0.596 0.98,0.98 0 0 1 -0.336,0.39 1.75,1.75 0 0 1 -0.476,0.217 1.82,1.82 0 0 1 -0.541,0.076 2.89,2.89 0 0 1 -0.552,-0.043 2.62,2.62 0 0 1 -0.466,-0.13 c -0.141,-0.054 -0.26,-0.119 -0.368,-0.173 l -0.271,-0.152 c -0.032,-0.032 -0.065,-0.054 -0.097,-0.076 l -0.065,-0.065 c -0.022,-0.011 -0.032,-0.032 -0.043,-0.043 -0.011,-0.011 -0.022,-0.011 -0.022,-0.011 l -0.845,1.169 a 1.03,1.03 0 0 0 0.076,0.065 l 0.227,0.184 c 0.097,0.076 0.227,0.162 0.368,0.238 l 0.498,0.238 0.325,0.108 0.357,0.097 a 2.17,2.17 0 0 0 0.39,0.054 l 0.433,0.022 a 3.72,3.72 0 0 0 0.574,-0.054 4.23,4.23 0 0 0 0.661,-0.162 2.34,2.34 0 0 0 0.639,-0.314 3.22,3.22 0 0 0 0.531,-0.487 c 0.087,-0.108 0.162,-0.227 0.238,-0.346 0.076,-0.13 0.13,-0.26 0.184,-0.401 0.054,-0.141 0.097,-0.303 0.119,-0.476 a 4.04,4.04 0 0 0 0.032,-0.531 V 7.729 7.393 2.412 Z m 6.324,1.581 0.108,-0.931 0.076,-0.671 c -0.011,-0.011 -0.032,-0.011 -0.043,-0.011 h -0.043 -0.087 -0.141 -0.076 c -0.022,0 -0.043,0 -0.065,0.011 a 1.54,1.54 0 0 0 -0.455,0.087 2.29,2.29 0 0 0 -0.401,0.195 c -0.13,0.076 -0.249,0.173 -0.368,0.271 -0.119,0.098 -0.217,0.217 -0.314,0.336 V 2.416 h -1.624 l 0.011,3.476 v 2.49 h 1.613 V 5.739 c 0,-0.249 0.032,-0.487 0.087,-0.704 0.054,-0.206 0.13,-0.401 0.249,-0.574 a 1.09,1.09 0 0 1 0.433,-0.401 1.36,1.36 0 0 1 0.617,-0.13 0.37,0.37 0 0 1 0.108,0.011 c 0.043,0 0.076,0 0.108,0.011 l 0.108,0.022 a 0.31,0.31 0 0 1 0.097,0.022 z m 4.288,-0.086 a 1.46,1.46 0 0 1 0.574,0.108 c 0.173,0.076 0.336,0.184 0.476,0.325 0.14,0.141 0.249,0.303 0.325,0.476 a 1.46,1.46 0 0 1 0.108,0.574 1.46,1.46 0 0 1 -0.108,0.574 c -0.076,0.173 -0.184,0.336 -0.325,0.476 -0.141,0.14 -0.303,0.249 -0.476,0.325 a 1.46,1.46 0 0 1 -0.574,0.108 c -0.206,0 -0.401,-0.032 -0.574,-0.108 -0.173,-0.076 -0.336,-0.184 -0.476,-0.325 -0.14,-0.141 -0.249,-0.303 -0.325,-0.476 a 1.46,1.46 0 0 1 -0.108,-0.574 1.46,1.46 0 0 1 0.108,-0.574 c 0.076,-0.173 0.184,-0.336 0.325,-0.476 0.141,-0.14 0.303,-0.249 0.476,-0.325 0.173,-0.076 0.368,-0.108 0.574,-0.108 z m 0,4.526 c 0.141,0 0.292,-0.011 0.433,-0.032 0.141,-0.021 0.271,-0.054 0.411,-0.087 a 2.07,2.07 0 0 0 0.39,-0.141 c 0.119,-0.054 0.249,-0.119 0.368,-0.195 0.206,-0.13 0.401,-0.282 0.574,-0.466 a 3.84,3.84 0 0 0 0.466,-0.617 2.58,2.58 0 0 0 0.303,-0.715 3.16,3.16 0 0 0 0.097,-0.79 c 0,-0.271 -0.032,-0.531 -0.097,-0.78 a 2.58,2.58 0 0 0 -0.303,-0.715 3.84,3.84 0 0 0 -0.466,-0.617 c -0.173,-0.184 -0.368,-0.336 -0.574,-0.466 -0.119,-0.076 -0.249,-0.141 -0.368,-0.195 a 2.07,2.07 0 0 0 -0.39,-0.141 l -0.411,-0.087 a 2.87,2.87 0 0 0 -0.433,-0.032 c -0.271,0 -0.531,0.032 -0.78,0.097 a 2.92,2.92 0 0 0 -0.715,0.292 3.84,3.84 0 0 0 -0.617,0.466 c -0.184,0.173 -0.336,0.368 -0.466,0.574 -0.076,0.119 -0.141,0.249 -0.195,0.368 a 2.07,2.07 0 0 0 -0.141,0.39 l -0.087,0.411 a 2.87,2.87 0 0 0 -0.032,0.433 3.16,3.16 0 0 0 0.097,0.79 2.92,2.92 0 0 0 0.292,0.715 3.84,3.84 0 0 0 0.466,0.617 c 0.173,0.184 0.368,0.336 0.574,0.466 0.119,0.076 0.238,0.141 0.368,0.195 a 2.07,2.07 0 0 0 0.39,0.141 l 0.411,0.087 a 2.87,2.87 0 0 0 0.433,0.032 z m 9.941,-0.065 -0.011,-3.465 -0.011,-2.49 h -1.613 v 2.642 c 0,0.249 -0.032,0.487 -0.087,0.704 -0.055,0.217 -0.13,0.411 -0.249,0.585 a 1.14,1.14 0 0 1 -0.433,0.39 c -0.173,0.087 -0.379,0.13 -0.628,0.13 a 1.32,1.32 0 0 1 -0.466,-0.076 0.88,0.88 0 0 1 -0.368,-0.206 0.99,0.99 0 0 1 -0.238,-0.39 c -0.054,-0.163 -0.076,-0.368 -0.076,-0.596 V 2.415 h -1.581 v 0.433 1.299 1.732 a 3.49,3.49 0 0 0 0.152,1.05 2.2,2.2 0 0 0 0.466,0.801 c 0.206,0.227 0.444,0.379 0.736,0.498 a 2.62,2.62 0 0 0 0.953,0.173 h 0.141 0.065 c 0.022,0 0.043,0 0.076,-0.011 0.162,-0.011 0.325,-0.043 0.476,-0.097 a 1.8,1.8 0 0 0 0.433,-0.217 3.52,3.52 0 0 0 0.379,-0.303 2.75,2.75 0 0 0 0.325,-0.379 l 0.162,0.563 0.108,0.401 1.289,0.011 z m 7.039,-3.465 a 3.49,3.49 0 0 0 -0.152,-1.05 2.14,2.14 0 0 0 -0.466,-0.79 c -0.206,-0.227 -0.444,-0.39 -0.736,-0.509 -0.282,-0.119 -0.596,-0.173 -0.953,-0.173 h -0.141 -0.076 c -0.022,0 -0.043,0 -0.065,0.011 a 1.54,1.54 0 0 0 -0.455,0.087 2.29,2.29 0 0 0 -0.401,0.195 c -0.13,0.076 -0.249,0.173 -0.368,0.271 -0.108,0.097 -0.206,0.217 -0.303,0.336 V 2.417 h -1.635 l 0.011,3.476 v 2.49 h 1.624 V 5.739 c 0,-0.249 0.032,-0.487 0.087,-0.704 0.054,-0.206 0.13,-0.401 0.249,-0.585 a 1.15,1.15 0 0 1 0.433,-0.39 1.36,1.36 0 0 1 0.617,-0.13 1.28,1.28 0 0 1 0.466,0.076 0.88,0.88 0 0 1 0.368,0.206 0.99,0.99 0 0 1 0.238,0.39 c 0.054,0.163 0.076,0.368 0.076,0.596 V 8.37 h 1.581 z m 6.02,0.476 a 1.87,1.87 0 0 1 -0.119,0.65 c -0.076,0.206 -0.195,0.39 -0.357,0.552 -0.162,0.162 -0.336,0.292 -0.531,0.379 a 1.51,1.51 0 0 1 -0.628,0.13 1.81,1.81 0 0 1 -0.639,-0.119 1.69,1.69 0 0 1 -0.541,-0.379 c -0.162,-0.162 -0.282,-0.346 -0.357,-0.552 a 1.93,1.93 0 0 1 -0.119,-0.66 1.87,1.87 0 0 1 0.119,-0.65 c 0.076,-0.206 0.195,-0.39 0.357,-0.552 a 1.69,1.69 0 0 1 0.541,-0.379 1.51,1.51 0 0 1 0.628,-0.13 1.51,1.51 0 0 1 0.628,0.13 c 0.195,0.087 0.368,0.217 0.531,0.379 a 1.49,1.49 0 0 1 0.357,0.552 c 0.075,0.206 0.119,0.422 0.13,0.65 z m 0,-5.381 v 3.194 a 2.06,2.06 0 0 0 -0.303,-0.314 3.38,3.38 0 0 0 -0.379,-0.271 3.03,3.03 0 0 0 -0.466,-0.206 c -0.162,-0.054 -0.347,-0.097 -0.531,-0.097 h -0.054 c -0.022,0 -0.043,0 -0.054,-0.011 h -0.119 c -0.227,0 -0.444,0.032 -0.671,0.087 a 2.95,2.95 0 0 0 -0.671,0.271 3.03,3.03 0 0 0 -0.606,0.422 3.39,3.39 0 0 0 -0.476,0.563 l -0.206,0.357 -0.152,0.401 a 2.67,2.67 0 0 0 -0.097,0.444 3.52,3.52 0 0 0 -0.032,0.476 3.38,3.38 0 0 0 0.108,0.91 c 0.076,0.282 0.173,0.541 0.314,0.769 a 3.27,3.27 0 0 0 0.476,0.606 c 0.173,0.173 0.357,0.336 0.574,0.444 l 0.347,0.173 0.368,0.119 0.368,0.087 0.379,0.022 h 0.054 0.065 a 1.59,1.59 0 0 0 0.498,-0.076 4.84,4.84 0 0 0 0.498,-0.206 1.98,1.98 0 0 0 0.433,-0.282 2.43,2.43 0 0 0 0.379,-0.368 l 0.173,0.509 0.108,0.368 h 1.278 v -8.38 c -0.271,0 -0.801,0 -1.603,-0.011 z"
       id="path44"
       style="fill:#ffffff" /><g
       id="g753"
       style="fill:#ffffff"><use
         xlink:href="#F"
         id="use54"
         transform="translate(6.0097528)"
         style="fill:#ffffff" /><path
         d="m 54.362752,12.001 h -0.546 v 2.244 h -0.432 v -2.244 h -0.337 v -0.356 h 0.337 V 11.46 q 0,-0.437 0.223,-0.636 0.228,-0.204 0.726,-0.204 v 0.361 q -0.285,0 -0.403,0.114 -0.114,0.109 -0.114,0.365 v 0.185 h 0.546 z m 2.522,0.066 q 0.114,-0.223 0.323,-0.346 0.214,-0.123 0.517,-0.123 v 0.446 h -0.114 q -0.726,0 -0.726,0.788 v 1.414 h -0.432 v -2.6 h 0.432 z m 3.149,-0.845 q -0.123,0 -0.209,-0.085 -0.085,-0.085 -0.085,-0.209 0,-0.123 0.085,-0.209 0.085,-0.085 0.209,-0.085 0.119,0 0.199,0.085 0.085,0.085 0.085,0.209 0,0.123 -0.085,0.209 -0.081,0.085 -0.199,0.085 z m 0.209,0.422 v 2.6 h -0.432 v -2.6 z m 2.161,1.296 q 0,-0.403 0.161,-0.702 0.161,-0.304 0.446,-0.47 0.289,-0.166 0.66,-0.166 0.479,0 0.788,0.232 0.313,0.232 0.413,0.645 h -0.465 q -0.066,-0.237 -0.261,-0.375 -0.19,-0.138 -0.474,-0.138 -0.37,0 -0.598,0.256 -0.228,0.251 -0.228,0.716 0,0.47 0.228,0.726 0.228,0.256 0.598,0.256 0.285,0 0.474,-0.133 0.19,-0.133 0.261,-0.38 h 0.465 q -0.104,0.399 -0.418,0.641 -0.313,0.237 -0.783,0.237 -0.37,0 -0.66,-0.166 -0.285,-0.166 -0.446,-0.47 -0.161,-0.304 -0.161,-0.712 z"
         id="path56"
         style="fill:#ffffff" /><use
         xlink:href="#F"
         x="18.523001"
         id="use58"
         transform="translate(6.0097528)"
         style="fill:#ffffff" /></g></g><g
     id="g323"
     style="fill:#ff0000"><g
       id="g1241"
       transform="translate(-2.9871817)"
       style="fill:#ff0000"><g
         id="g1234"
         style="fill:#ff0000"><path
           d="m 17.388934,0.097 h -1.635 V 0.53 3.54 8.38 h 1.635 z"
           fill="#3fb324"
           id="path38"
           style="fill:#ff0000" /><path
           d="m 23.474934,5.392 c 0.011,0.238 -0.043,0.455 -0.119,0.66 a 1.57,1.57 0 0 1 -0.357,0.541 c -0.162,0.162 -0.336,0.292 -0.531,0.379 -0.195,0.076 -0.401,0.119 -0.628,0.119 a 1.61,1.61 0 0 1 -0.617,-0.119 c -0.195,-0.087 -0.368,-0.217 -0.531,-0.379 -0.163,-0.162 -0.282,-0.346 -0.357,-0.552 a 1.87,1.87 0 0 1 -0.119,-0.65 c 0,-0.227 0.043,-0.444 0.119,-0.65 a 1.57,1.57 0 0 1 0.357,-0.541 c 0.162,-0.162 0.336,-0.292 0.52,-0.379 0.184,-0.076 0.39,-0.119 0.617,-0.119 0.227,0 0.433,0.043 0.628,0.119 0.195,0.087 0.368,0.217 0.531,0.379 a 1.57,1.57 0 0 1 0.357,0.541 c 0.076,0.206 0.13,0.422 0.13,0.65 z m -0.011,-2.988 v 0.845 a 2.06,2.06 0 0 0 -0.303,-0.314 c -0.108,-0.097 -0.227,-0.195 -0.368,-0.271 -0.141,-0.087 -0.303,-0.152 -0.466,-0.195 -0.162,-0.054 -0.347,-0.087 -0.531,-0.097 -0.011,-0.011 -0.032,-0.011 -0.054,-0.011 h -0.054 -0.108 c -0.227,0 -0.455,0.032 -0.671,0.087 -0.227,0.054 -0.444,0.13 -0.671,0.249 -0.227,0.119 -0.422,0.249 -0.606,0.411 -0.173,0.162 -0.336,0.357 -0.476,0.563 -0.076,0.119 -0.141,0.238 -0.195,0.357 l -0.152,0.401 a 2.8,2.8 0 0 0 -0.097,0.433 3.25,3.25 0 0 0 -0.032,0.466 3.77,3.77 0 0 0 0.032,0.509 c 0.022,0.162 0.054,0.325 0.097,0.466 0.032,0.141 0.087,0.282 0.141,0.422 l 0.206,0.379 c 0.141,0.217 0.303,0.411 0.476,0.574 a 3.03,3.03 0 0 0 0.606,0.422 c 0.217,0.119 0.433,0.195 0.661,0.249 0.228,0.054 0.455,0.087 0.682,0.087 h 0.054 0.054 a 1.59,1.59 0 0 0 0.498,-0.076 4.57,4.57 0 0 0 0.487,-0.195 c 0.162,-0.076 0.303,-0.173 0.444,-0.282 0.13,-0.108 0.249,-0.227 0.368,-0.368 l 0.162,0.509 0.119,0.368 h 1.256 V 2.404 Z"
           fill="#ffa000"
           id="path40"
           style="fill:#ff0000" /><path
           d="m 27.004934,10.33 0.855,0.336 0.617,0.238 1.072,-2.566 0.769,-1.83 0.877,-2.133 0.628,-1.516 -1.44,-0.552 -1.549,3.692 -1.527,-3.692 -0.845,0.325 -0.606,0.227 2.122,5.132 z"
           fill="#ff2919"
           id="path42"
           style="fill:#ff0000" /></g><path
         d="m 48.745934,12.945 a 0.847,0.847 0 0 1 -1.693,0 0.847,0.847 0 0 1 1.693,0 z"
         fill="#007fff"
         id="path46"
         style="fill:#ff0000" /></g><path
       id="path518"
       style="opacity:0.88;fill:#ff0000;stroke-width:0.709223;stroke-linecap:round"
       d="M 5.2869957 1.4209263 A 5.6887407 5.6887407 0 0 0 4.0209234 1.2780329 A 5.6887407 5.6887407 0 0 0 -1.6674035 6.966889 A 5.6887407 5.6887407 0 0 0 -0.35051812 10.602049 L 0.051046819 9.9060594 L 0.24485749 9.5701067 L 0.30360066 9.4686792 L 1.9894831 6.5492961 L 3.9223831 3.2012147 L 6.4623687 4.6677352 A 2.63 2.63 0 0 1 6.9913095 5.0737606 C 7.1427092 5.2235252 7.2829591 5.3923502 7.3828046 5.587411 C 7.4826601 5.7824655 7.567547 5.9811114 7.6287005 6.1792159 C 7.6898403 6.3773246 7.7213682 6.5828234 7.7228686 6.796172 C 7.7306629 6.9126793 7.7231609 7.0341177 7.7064009 7.1491478 A 1.44 1.44 0 0 1 7.6466388 7.489988 C 7.6157397 7.609555 7.5897577 7.7190094 7.5493574 7.8330801 C 7.4993783 7.9416352 7.4491538 8.050503 7.3896531 8.153561 C 7.2761529 8.3501492 7.1396599 8.5207095 6.9843943 8.6816371 C 6.834629 8.8330376 6.6658014 8.9732857 6.4707439 9.0731323 A 2.96 2.96 0 0 1 5.88812 9.3246982 C 5.6963762 9.3768098 5.4940405 9.4228365 5.2711639 9.4188664 L 4.9280019 9.4077033 C 4.8066055 9.3999722 4.6977708 9.3740577 4.5773479 9.3426365 C 4.4569242 9.311218 4.3474478 9.2850367 4.2333911 9.2445885 A 3.95 3.95 0 0 1 3.9134094 9.0850179 L 2.8254808 8.4569855 L 1.4987975 10.754629 L 0.93067617 11.738768 A 5.6887407 5.6887407 0 0 0 4.0213189 12.655715 A 5.6887407 5.6887407 0 0 0 9.7096458 6.9668589 A 5.6887407 5.6887407 0 0 0 5.2869957 1.4209263 z M 4.5365492 5.4935248 L 3.6700402 6.9942499 L 4.1671325 7.281529 L 4.7203446 7.6009658 L 4.7572021 7.623147 C 4.8602582 7.6826504 4.9656682 7.7179156 5.0751993 7.7441999 A 0.94 0.94 0 0 0 5.4170097 7.7164799 C 5.5358531 7.6846353 5.6410741 7.6322123 5.7172914 7.5642097 A 0.88 0.88 0 0 0 5.9416348 7.3059899 C 6.0011157 7.2029289 6.0422468 7.0878262 6.0535068 6.9823227 C 6.0747955 6.8814517 6.0668131 6.7650288 6.0349678 6.6461824 C 6.003124 6.527338 5.9507003 6.4221098 5.8826976 6.3459007 A 0.88 0.88 0 0 0 5.6239786 6.1214235 L 4.5365492 5.4935248 z "
       transform="rotate(-15)" /></g></svg>
